<svg xmlns="http://www.w3.org/2000/svg" width="580" height="260" viewBox="0 0 580 260">
<style>
.p{fill:none;stroke:#FFE7A3;stroke-width:4;stroke-linecap:round;stroke-dasharray:6 200;stroke-dashoffset:6;animation:run 3.2s linear infinite}
@keyframes run{to{stroke-dashoffset:-100}}
.led{animation:blink 2.4s ease-in-out infinite}
@keyframes blink{50%{opacity:.25}}
@media (prefers-reduced-motion:reduce){.p,.led{animation:none}.p{display:none}}
</style>
<rect width="580" height="260" rx="16" fill="#0E3B2C"/>
<rect x="8" y="8" width="564" height="244" rx="11" fill="none" stroke="#EDEFE6" stroke-opacity=".18" stroke-width="1.5" stroke-dasharray="2 6"/>
<circle cx="22" cy="22" r="9" fill="none" stroke="#D4A24C" stroke-width="4"/><circle cx="22" cy="22" r="5" fill="#0A2B20"/><circle cx="558" cy="22" r="9" fill="none" stroke="#D4A24C" stroke-width="4"/><circle cx="558" cy="22" r="5" fill="#0A2B20"/><circle cx="22" cy="238" r="9" fill="none" stroke="#D4A24C" stroke-width="4"/><circle cx="22" cy="238" r="5" fill="#0A2B20"/><circle cx="558" cy="238" r="9" fill="none" stroke="#D4A24C" stroke-width="4"/><circle cx="558" cy="238" r="5" fill="#0A2B20"/>
<g transform="translate(44,44)"><g fill="none" stroke="#D4A24C" stroke-width="4" stroke-linecap="round"><rect x="21" y="21" width="16" height="16" rx="3"/><path d="M21 21 L10 10 M37 21 L48 10 M21 37 L10 48 M37 37 L48 48"/><circle cx="10" cy="10" r="8"/><circle cx="48" cy="10" r="8"/><circle cx="10" cy="48" r="8"/><circle cx="48" cy="48" r="8"/></g></g><text x="120" y="78" font-family="'Segoe UI','Helvetica Neue',Helvetica,Arial,sans-serif" font-size="36" font-weight="800" fill="#EDEFE6" letter-spacing="-.5">SkySaver</text><text x="121" y="104" font-family="'Segoe UI','Helvetica Neue',Helvetica,Arial,sans-serif" font-size="16" fill="#D4A24C">Ignition Hacks 2026</text><text x="536" y="54" text-anchor="end" font-family="Menlo,Consolas,'DejaVu Sans Mono',monospace" font-size="14" fill="#EDEFE6" fill-opacity=".55">U3</text><text x="46" y="150" font-family="'Segoe UI','Helvetica Neue',Helvetica,Arial,sans-serif" font-size="19" fill="#EDEFE6" fill-opacity=".88">Tell a drone what to look for in plain English.</text><text x="46" y="176" font-family="'Segoe UI','Helvetica Neue',Helvetica,Arial,sans-serif" font-size="19" fill="#EDEFE6" fill-opacity=".88">It finds it using computer vision and GPS.</text><path d="M150 222 H510 L528 204" fill="none" stroke="#D4A24C" stroke-width="5" stroke-linejoin="round" stroke-linecap="round"/><circle cx="528" cy="204" r="7" fill="#D4A24C"/><circle cx="528" cy="204" r="3" fill="#0A2B20"/><circle cx="54" cy="222" r="6" fill="#5CFF8A"/><circle cx="54" cy="222" r="12" fill="#5CFF8A" fill-opacity=".16"/><text x="70" y="228" font-family="'Segoe UI','Helvetica Neue',Helvetica,Arial,sans-serif" font-size="16" font-weight="700" fill="#5CFF8A">Shipped</text>
</svg>